<svg height="446pt" viewBox="0 0 446 446.23642" width="446pt" xmlns="http://www.w3.org/2000/svg"><path d="m270.222656 42.621094v-17.121094c0-14.082031-11.414062-25.5-25.5-25.5-14.082031 0-25.5 11.417969-25.5 25.5v17.515625c16.917969-2.25 34.050782-2.382813 51-.394531zm0 0"/><path d="m394.140625 303.675781c-.058594.039063-.117187.074219-.175781.109375l-66.1875 40.136719c1.109375 3.722656 1.820312 7.550781 2.117187 11.425781.335938 4.402344-2.960937 8.246094-7.367187 8.585938l-102.597656 7.832031c-.207032.015625-.414063.023437-.621094.023437-4.296875-.003906-7.824219-3.402343-7.988282-7.699218-.160156-4.296875 3.101563-7.953125 7.390626-8.277344l93.792968-7.160156c-5.144531-17.457032-21.773437-28.949219-39.921875-27.585938l-62.417969 4.765625c-12.394531.929688-24.835937-.9375-36.40625-5.46875l-6.671874-2.621093c-32.574219-12.882813-69.582032-6.957032-96.5 15.457031l6.859374 89.851562 9.484376-6.429687c10.128906-6.882813 22.535156-9.5625 34.601562-7.472656l108.691406 18.65625c20.6875 2.035156 41.492188-2.503907 59.449219-12.980469l136.050781-109.535157c-9.085937-7.265624-21.800781-7.917968-31.582031-1.613281zm0 0"/><path d="m62.222656 258.4375c7.757813 15.4375 23.625 25.117188 40.902344 24.953125h286.699219c17.277343.164063 33.144531-9.515625 40.898437-24.953125l15.609375-33.046875h-399.714843zm0 0"/><path d="m.117188 311.988281 52.496093-4.007812 10.246094 134.25-52.492187 4.007812zm0 0"/><path d="m368.554688 104.097656c-32.511719-30.167968-75.867188-46.835937-122.082032-46.835937-46.210937 0-89.566406 16.648437-122.078125 46.816406-30.5 28.304687-48.070312 65.3125-49.980469 105.3125h344.121094c-1.910156-40-19.480468-76.988281-49.980468-105.292969zm0 0"/></svg>